<svg
  xmlns="http://www.w3.org/2000/svg"
  viewBox="0 0 154 150"
  enable-background="new 0 0 154 150">
  <ellipse
    [@showAnimation]="state"
    class="dog-ellipse"
    cx="74"
    cy="83"
    rx="0"
    ry="0"
    fill="#ceebf7"/>
  <ellipse
    class="dog-ellipse"
    cx="75.9"
    cy="85.4"
    rx="48.1"
    ry="60.7"
    fill="#a6deeb"/>
  <ellipse
    class="dog-ellipse"
    cx="78.8"
    cy="88.8"
    rx="42.9"
    ry="54.1"
    fill="#4d4262"/>
  <!-- <path d="M19.6 74.4l21.7 17.2m31.9-56l21.7 17.1M25.2 99.8l21.7 17.1m47.3-55.2L116 78.9" fill="none" stroke="#3079ed" stroke-width="3" stroke-linecap="round" stroke-miterlimit="10"/> -->
  <clipPath id="dogmask">
    <path d="M121.7 88.8c0 29.9-19.2 54.1-42.9 54.1-23.4 0-33.4-19.2-41.1-33.2-11-19.7-35.8-40.8-37-49C.7 23.4 45.9 2.8 69.6 2.8s52.1 56.1 52.1 86z"/>
  </clipPath>
  <g
    class="dog"
    clip-path="url(#dogmask)" >
    <g class="dog-object">
      <path
        class="st5"
        d="M86.1 127.9c-3.6 0-6.5 2.9-6.5 6.5 0 6 4.7 10.8 10.4 10.8h9.3c3.6 0 6.5-2.9 6.5-6.5v-4.4c0-3.6-2.9-6.5-6.5-6.5H86.1zm-26.5 17.3H50V88.9h17.8l-1.1 49.3c-.1 3.9-5.4 7.1-9.2 7.1"/>
      <path
        class="st6"
        d="M86.9 69l42.9 33.8v31.7c0 5.9-4.6 10.7-10.3 10.7h-14.8l-31.8-19.3c-14.4-8.7-23.2-24.7-23.2-42 .1-19.2 28-24.8 37.2-14.9z"/>
      <path
        class="st6"
        d="M49.8 83.9V57.4l33-21.8 8.9 37.2c4.6 25.1-41.9 30.3-41.9 11.1z"/>
      <path
        class="st5"
        d="M65.1 8.2l-5.4 19.9 6.6 2.3 3.9 1.4 2.5-7.9c.1-.2.1-.3.1-.5 1.7-6.4-1.7-13.1-7.7-15.2"/>
      <path
        class="st6"
        d="M77.5 12.4l-5.4 19.9 6.6 2.3 3.9 1.4 2.5-7.9c.1-.2.1-.3.1-.5 1.7-6.4-1.6-13.1-7.7-15.2"/>
      <path
        class="st6"
        d="M33.4 43.9l21.8 19.7 27.5-28-31.1-14.7-17-8.1-5.2 11.6c-3 6.7-1.4 14.7 4 19.5"/>
      <path
        class="st7"
        d="M57.7 33.7c-.4 1.5.4 3 1.9 3.5 1.4.4 2.9-.4 3.3-1.9.4-1.5-.4-3-1.9-3.5-1.4-.5-2.9.4-3.3 1.9m-9.8-14.6L46.6 22c-1.9 4.1-6.6 5.9-10.6 3.9L30 23l4.6-10.3 13.3 6.4z"/>
      <path
        transform="matrix(.3873 -.9219 .9219 .3873 -7.7444 46.9106)"
        class="st7"
        d="M26.4 28.7h10v1.2h-10z"/>
      <path
        d="M123.6 106.1s17.2 8.5 24.6-7.7"
        fill="none"
        stroke="#f7a430"
        stroke-width="10"
        stroke-linecap="round"
        stroke-miterlimit="10"/>
      <path
        class="st6"
        d="M94.3 127.9c-3.6 0-6.5 2.9-6.5 6.5 0 6 4.7 10.8 10.4 10.8h9.3c3.6 0 6.5-2.9 6.5-6.5v-4.4c0-3.6-2.9-6.5-6.5-6.5H94.3zm-18.6 17.3H66V88.9h17.8l-1.1 49.3c-.1 3.9-5.4 7.1-9.2 7.1"/>
    </g>
  </g>
</svg>
